<svg width="52" height="41" viewBox="0 0 52 41" fill="none" xmlns="http://www.w3.org/2000/svg">
<g clip-path="url(#clip0)">
<rect width="52" height="41" fill="white"/>
<path d="M16.4717 36H15.1523V31.3994H10.1348V36H8.82227V26.0469H10.1348V30.3262H15.1523V26.0469H16.4717V36ZM18.2695 32.2334C18.2695 31.5088 18.4108 30.8571 18.6934 30.2783C18.9805 29.6995 19.377 29.2529 19.8828 28.9385C20.3932 28.624 20.9743 28.4668 21.626 28.4668C22.6331 28.4668 23.4466 28.8154 24.0664 29.5127C24.6908 30.21 25.0029 31.1374 25.0029 32.2949V32.3838C25.0029 33.1038 24.8639 33.751 24.5859 34.3252C24.3125 34.8949 23.9183 35.3392 23.4033 35.6582C22.8929 35.9772 22.305 36.1367 21.6396 36.1367C20.637 36.1367 19.8236 35.7881 19.1992 35.0908C18.5794 34.3936 18.2695 33.4707 18.2695 32.3223V32.2334ZM19.541 32.3838C19.541 33.2041 19.7301 33.8626 20.1084 34.3594C20.4912 34.8561 21.0016 35.1045 21.6396 35.1045C22.2822 35.1045 22.7926 34.8538 23.1709 34.3525C23.5492 33.8467 23.7383 33.1403 23.7383 32.2334C23.7383 31.4222 23.5446 30.766 23.1572 30.2646C22.7744 29.7588 22.264 29.5059 21.626 29.5059C21.0016 29.5059 20.498 29.7542 20.1152 30.251C19.7324 30.7477 19.541 31.4587 19.541 32.3838ZM27.7783 28.6035L27.8125 29.4238C28.3548 28.7858 29.0863 28.4668 30.0068 28.4668C31.0413 28.4668 31.7454 28.8633 32.1191 29.6562C32.3652 29.3008 32.6842 29.0137 33.0762 28.7949C33.4727 28.5762 33.9398 28.4668 34.4775 28.4668C36.0999 28.4668 36.9248 29.3258 36.9521 31.0439V36H35.6875V31.1191C35.6875 30.5905 35.5667 30.1963 35.3252 29.9365C35.0837 29.6722 34.6781 29.54 34.1084 29.54C33.639 29.54 33.2493 29.6813 32.9395 29.9639C32.6296 30.2419 32.4495 30.6178 32.3994 31.0918V36H31.1279V31.1533C31.1279 30.0778 30.6016 29.54 29.5488 29.54C28.7194 29.54 28.152 29.8932 27.8467 30.5996V36H26.582V28.6035H27.7783ZM41.9355 36.1367C40.9329 36.1367 40.1172 35.8086 39.4883 35.1523C38.8594 34.4915 38.5449 33.6097 38.5449 32.5068V32.2744C38.5449 31.5407 38.6839 30.8867 38.9619 30.3125C39.2445 29.7337 39.6364 29.2826 40.1377 28.959C40.6436 28.6309 41.1904 28.4668 41.7783 28.4668C42.7399 28.4668 43.4873 28.7835 44.0205 29.417C44.5537 30.0505 44.8203 30.9574 44.8203 32.1377V32.6641H39.8096C39.8278 33.3932 40.0397 33.9834 40.4453 34.4346C40.8555 34.8812 41.375 35.1045 42.0039 35.1045C42.4505 35.1045 42.8288 35.0133 43.1387 34.8311C43.4486 34.6488 43.7197 34.4072 43.9521 34.1064L44.7246 34.708C44.1048 35.6605 43.1751 36.1367 41.9355 36.1367ZM41.7783 29.5059C41.2679 29.5059 40.8395 29.6927 40.4932 30.0664C40.1468 30.4355 39.9326 30.9551 39.8506 31.625H43.5557V31.5293C43.5192 30.8867 43.346 30.39 43.0361 30.0391C42.7262 29.6836 42.307 29.5059 41.7783 29.5059Z" fill="#0029FF"/>
<path d="M26 5.69L31 10.19V18H29V12H23V18H21V10.19L26 5.69V5.69ZM26 3L16 12H19V20H25V14H27V20H33V12H36L26 3Z" fill="#0029FF"/>
</g>
<defs>
<clipPath id="clip0">
<rect width="52" height="41" fill="white"/>
</clipPath>
</defs>
</svg>
