<svg width="52" height="41" viewBox="0 0 52 41" fill="none" xmlns="http://www.w3.org/2000/svg">
<g clip-path="url(#clip0)">
<rect width="52" height="41" fill="white"/>
<path d="M19.5342 38H18.2148L13.2041 30.3301V38H11.8848V28.0469H13.2041L18.2285 35.751V28.0469H19.5342V38ZM24.7363 38.1367C23.7337 38.1367 22.918 37.8086 22.2891 37.1523C21.6602 36.4915 21.3457 35.6097 21.3457 34.5068V34.2744C21.3457 33.5407 21.4847 32.8867 21.7627 32.3125C22.0452 31.7337 22.4372 31.2826 22.9385 30.959C23.4443 30.6309 23.9912 30.4668 24.5791 30.4668C25.5407 30.4668 26.2881 30.7835 26.8213 31.417C27.3545 32.0505 27.6211 32.9574 27.6211 34.1377V34.6641H22.6104C22.6286 35.3932 22.8405 35.9834 23.2461 36.4346C23.6562 36.8812 24.1758 37.1045 24.8047 37.1045C25.2513 37.1045 25.6296 37.0133 25.9395 36.8311C26.2493 36.6488 26.5205 36.4072 26.7529 36.1064L27.5254 36.708C26.9056 37.6605 25.9759 38.1367 24.7363 38.1367ZM24.5791 31.5059C24.0687 31.5059 23.6403 31.6927 23.2939 32.0664C22.9476 32.4355 22.7334 32.9551 22.6514 33.625H26.3564V33.5293C26.32 32.8867 26.1468 32.39 25.8369 32.0391C25.527 31.6836 25.1077 31.5059 24.5791 31.5059ZM35.6396 36.2568L37.0615 30.6035H38.3262L36.1729 38H35.1475L33.3496 32.3945L31.5996 38H30.5742L28.4277 30.6035H29.6855L31.1416 36.1406L32.8643 30.6035H33.8828L35.6396 36.2568ZM41.0332 35.1904H39.8916L39.8027 28.0469H41.1289L41.0332 35.1904ZM39.7549 37.3643C39.7549 37.1592 39.8164 36.9883 39.9395 36.8516C40.0671 36.7103 40.2539 36.6396 40.5 36.6396C40.7461 36.6396 40.9329 36.7103 41.0605 36.8516C41.1882 36.9883 41.252 37.1592 41.252 37.3643C41.252 37.5693 41.1882 37.7402 41.0605 37.877C40.9329 38.0091 40.7461 38.0752 40.5 38.0752C40.2539 38.0752 40.0671 38.0091 39.9395 37.877C39.8164 37.7402 39.7549 37.5693 39.7549 37.3643Z" fill="#0029FF"/>
<path d="M37 13L34.56 10.22L34.9 6.54001L31.29 5.72001L29.4 2.54001L26 4.00001L22.6 2.54001L20.71 5.72001L17.1 6.53001L17.44 10.21L15 13L17.44 15.78L17.1 19.47L20.71 20.29L22.6 23.47L26 22L29.4 23.46L31.29 20.28L34.9 19.46L34.56 15.78L37 13ZM32.49 15.11L32.75 17.9L30.01 18.52L28.58 20.93L26 19.82L23.42 20.93L21.99 18.52L19.25 17.9L19.51 15.1L17.66 13L19.51 10.88L19.25 8.10001L21.99 7.49001L23.42 5.08001L26 6.18001L28.58 5.07001L30.01 7.48001L32.75 8.10001L32.49 10.89L34.34 13L32.49 15.11V15.11ZM25 16H27V18H25V16ZM25 8.00001H27V14H25V8.00001Z" fill="#0029FF"/>
</g>
<defs>
<clipPath id="clip0">
<rect width="52" height="41" fill="white"/>
</clipPath>
</defs>
</svg>
