<svg width="52" height="41" viewBox="0 0 52 41" fill="none" xmlns="http://www.w3.org/2000/svg">
<g clip-path="url(#clip0)">
<rect width="52" height="41" fill="white"/>
<path d="M14.5098 35.4023H10.3398L9.40332 38H8.0498L11.8506 28.0469H12.999L16.8066 38H15.46L14.5098 35.4023ZM10.7363 34.3223H14.1201L12.4248 29.667L10.7363 34.3223ZM24.21 34.3838C24.21 35.514 23.9502 36.4232 23.4307 37.1113C22.9111 37.7949 22.2139 38.1367 21.3389 38.1367C20.4046 38.1367 19.6823 37.8063 19.1719 37.1455L19.1104 38H17.9482V27.5H19.2129V31.417C19.7233 30.7835 20.4274 30.4668 21.3252 30.4668C22.223 30.4668 22.9271 30.8063 23.4375 31.4854C23.9525 32.1644 24.21 33.0941 24.21 34.2744V34.3838ZM22.9453 34.2402C22.9453 33.3789 22.779 32.7135 22.4463 32.2441C22.1136 31.7747 21.6351 31.54 21.0107 31.54C20.1768 31.54 19.5775 31.9274 19.2129 32.7021V35.9014C19.6003 36.6761 20.2041 37.0635 21.0244 37.0635C21.6305 37.0635 22.1022 36.8288 22.4395 36.3594C22.7767 35.89 22.9453 35.1836 22.9453 34.2402ZM25.4746 34.2334C25.4746 33.5088 25.6159 32.8571 25.8984 32.2783C26.1855 31.6995 26.582 31.2529 27.0879 30.9385C27.5983 30.624 28.1794 30.4668 28.8311 30.4668C29.8382 30.4668 30.6517 30.8154 31.2715 31.5127C31.8958 32.21 32.208 33.1374 32.208 34.2949V34.3838C32.208 35.1038 32.069 35.751 31.791 36.3252C31.5176 36.8949 31.1234 37.3392 30.6084 37.6582C30.098 37.9772 29.5101 38.1367 28.8447 38.1367C27.8421 38.1367 27.0286 37.7881 26.4043 37.0908C25.7845 36.3936 25.4746 35.4707 25.4746 34.3223V34.2334ZM26.7461 34.3838C26.7461 35.2041 26.9352 35.8626 27.3135 36.3594C27.6963 36.8561 28.2067 37.1045 28.8447 37.1045C29.4873 37.1045 29.9977 36.8538 30.376 36.3525C30.7542 35.8467 30.9434 35.1403 30.9434 34.2334C30.9434 33.4222 30.7497 32.766 30.3623 32.2646C29.9795 31.7588 29.4691 31.5059 28.8311 31.5059C28.2067 31.5059 27.7031 31.7542 27.3203 32.251C26.9375 32.7477 26.7461 33.4587 26.7461 34.3838ZM38.3604 37.2686C37.8682 37.8473 37.1458 38.1367 36.1934 38.1367C35.4049 38.1367 34.8034 37.9089 34.3887 37.4531C33.9785 36.9928 33.7712 36.3138 33.7666 35.416V30.6035H35.0312V35.3818C35.0312 36.5029 35.487 37.0635 36.3984 37.0635C37.3646 37.0635 38.0072 36.7035 38.3262 35.9834V30.6035H39.5908V38H38.3877L38.3604 37.2686ZM43.2344 28.8125V30.6035H44.6152V31.5811H43.2344V36.168C43.2344 36.4642 43.2959 36.6875 43.4189 36.8379C43.542 36.9837 43.7516 37.0566 44.0479 37.0566C44.1937 37.0566 44.3942 37.0293 44.6494 36.9746V38C44.3167 38.0911 43.9932 38.1367 43.6787 38.1367C43.1136 38.1367 42.6875 37.9658 42.4004 37.624C42.1133 37.2822 41.9697 36.7969 41.9697 36.168V31.5811H40.623V30.6035H41.9697V28.8125H43.2344Z" fill="#0029FF"/>
<path d="M25 8H27V10H25V8ZM25 12H27V18H25V12ZM26 3C20.48 3 16 7.48 16 13C16 18.52 20.48 23 26 23C31.52 23 36 18.52 36 13C36 7.48 31.52 3 26 3ZM26 21C21.59 21 18 17.41 18 13C18 8.59 21.59 5 26 5C30.41 5 34 8.59 34 13C34 17.41 30.41 21 26 21Z" fill="#0029FF"/>
</g>
<defs>
<clipPath id="clip0">
<rect width="52" height="41" fill="white"/>
</clipPath>
</defs>
</svg>
