<svg width="52" height="41" viewBox="0 0 52 41" fill="none" xmlns="http://www.w3.org/2000/svg">
<g clip-path="url(#clip0)">
<rect width="52" height="41" fill="white"/>
<path d="M10.6729 33.5635C9.5472 33.2399 8.72689 32.8434 8.21191 32.374C7.7015 31.9001 7.44629 31.3167 7.44629 30.624C7.44629 29.8402 7.75846 29.193 8.38281 28.6826C9.01172 28.1676 9.82747 27.9102 10.8301 27.9102C11.5137 27.9102 12.1221 28.0423 12.6553 28.3066C13.193 28.571 13.6077 28.9355 13.8994 29.4004C14.1956 29.8652 14.3438 30.3734 14.3438 30.9248H13.0244C13.0244 30.3232 12.833 29.8516 12.4502 29.5098C12.0674 29.1634 11.5273 28.9902 10.8301 28.9902C10.1829 28.9902 9.67708 29.1338 9.3125 29.4209C8.95247 29.7035 8.77246 30.0977 8.77246 30.6035C8.77246 31.0091 8.94336 31.3532 9.28516 31.6357C9.63151 31.9137 10.2171 32.1689 11.042 32.4014C11.8714 32.6338 12.5186 32.8913 12.9834 33.1738C13.4528 33.4518 13.7992 33.7777 14.0225 34.1514C14.2503 34.5251 14.3643 34.9648 14.3643 35.4707C14.3643 36.2773 14.0498 36.9245 13.4209 37.4121C12.792 37.8952 11.9512 38.1367 10.8984 38.1367C10.2148 38.1367 9.57682 38.0068 8.98438 37.7471C8.39193 37.4827 7.93392 37.1227 7.61035 36.667C7.29134 36.2113 7.13184 35.694 7.13184 35.1152H8.45117C8.45117 35.7168 8.6722 36.193 9.11426 36.5439C9.56087 36.8903 10.1556 37.0635 10.8984 37.0635C11.5911 37.0635 12.1221 36.9222 12.4912 36.6396C12.8604 36.3571 13.0449 35.972 13.0449 35.4844C13.0449 34.9967 12.874 34.6208 12.5322 34.3564C12.1904 34.0876 11.5706 33.8232 10.6729 33.5635ZM20.4209 38C20.348 37.8542 20.2887 37.5944 20.2432 37.2207C19.6553 37.8314 18.9535 38.1367 18.1377 38.1367C17.4085 38.1367 16.8092 37.9316 16.3398 37.5215C15.875 37.1068 15.6426 36.5827 15.6426 35.9492C15.6426 35.179 15.9342 34.582 16.5176 34.1582C17.1055 33.7298 17.9303 33.5156 18.9922 33.5156H20.2227V32.9346C20.2227 32.4925 20.0905 32.1416 19.8262 31.8818C19.5618 31.6175 19.1722 31.4854 18.6572 31.4854C18.2061 31.4854 17.8278 31.5993 17.5225 31.8271C17.2171 32.055 17.0645 32.3307 17.0645 32.6543H15.793C15.793 32.2852 15.9229 31.9297 16.1826 31.5879C16.4469 31.2415 16.8024 30.9681 17.249 30.7676C17.7002 30.5671 18.1947 30.4668 18.7324 30.4668C19.5846 30.4668 20.2523 30.681 20.7354 31.1094C21.2184 31.5332 21.4691 32.1188 21.4873 32.8662V36.2705C21.4873 36.9495 21.5739 37.4896 21.7471 37.8906V38H20.4209ZM18.3223 37.0361C18.7188 37.0361 19.0947 36.9336 19.4502 36.7285C19.8057 36.5234 20.0632 36.2568 20.2227 35.9287V34.4111H19.2314C17.682 34.4111 16.9072 34.8646 16.9072 35.7715C16.9072 36.168 17.0394 36.4779 17.3037 36.7012C17.568 36.9245 17.9076 37.0361 18.3223 37.0361ZM25.8008 36.2842L27.6328 30.6035H28.9248L26.2725 38H25.3086L22.6289 30.6035H23.9209L25.8008 36.2842ZM33.1152 38.1367C32.1126 38.1367 31.2969 37.8086 30.668 37.1523C30.0391 36.4915 29.7246 35.6097 29.7246 34.5068V34.2744C29.7246 33.5407 29.8636 32.8867 30.1416 32.3125C30.4242 31.7337 30.8161 31.2826 31.3174 30.959C31.8232 30.6309 32.3701 30.4668 32.958 30.4668C33.9196 30.4668 34.667 30.7835 35.2002 31.417C35.7334 32.0505 36 32.9574 36 34.1377V34.6641H30.9893C31.0075 35.3932 31.2194 35.9834 31.625 36.4346C32.0352 36.8812 32.5547 37.1045 33.1836 37.1045C33.6302 37.1045 34.0085 37.0133 34.3184 36.8311C34.6283 36.6488 34.8994 36.4072 35.1318 36.1064L35.9043 36.708C35.2845 37.6605 34.3548 38.1367 33.1152 38.1367ZM32.958 31.5059C32.4476 31.5059 32.0192 31.6927 31.6729 32.0664C31.3265 32.4355 31.1123 32.9551 31.0303 33.625H34.7354V33.5293C34.6989 32.8867 34.5257 32.39 34.2158 32.0391C33.9059 31.6836 33.4867 31.5059 32.958 31.5059ZM37.1621 34.2402C37.1621 33.1055 37.431 32.194 37.9688 31.5059C38.5065 30.8132 39.2106 30.4668 40.0811 30.4668C40.9469 30.4668 41.6328 30.763 42.1387 31.3555V27.5H43.4033V38H42.2412L42.1797 37.207C41.6738 37.8268 40.9697 38.1367 40.0674 38.1367C39.2106 38.1367 38.5111 37.7858 37.9688 37.084C37.431 36.3822 37.1621 35.4661 37.1621 34.3359V34.2402ZM38.4268 34.3838C38.4268 35.2223 38.5999 35.8786 38.9463 36.3525C39.2926 36.8265 39.7712 37.0635 40.3818 37.0635C41.1839 37.0635 41.7695 36.7035 42.1387 35.9834V32.5859C41.7604 31.8887 41.1794 31.54 40.3955 31.54C39.7757 31.54 39.2926 31.7793 38.9463 32.2578C38.5999 32.7363 38.4268 33.445 38.4268 34.3838Z" fill="#0029FF"/>
<path d="M33 12V19H19V12H17V19C17 20.1 17.9 21 19 21H33C34.1 21 35 20.1 35 19V12H33ZM27 12.67L29.59 10.09L31 11.5L26 16.5L21 11.5L22.41 10.09L25 12.67V3H27V12.67Z" fill="#0029FF"/>
</g>
<defs>
<clipPath id="clip0">
<rect width="52" height="41" fill="white"/>
</clipPath>
</defs>
</svg>
